<svg id="Layer_35" enable-background="new 0 0 64 64" height="512" viewBox="0 0 64 64" width="512" xmlns="http://www.w3.org/2000/svg" xmlns:xlink="http://www.w3.org/1999/xlink"><linearGradient id="SVGID_1_" gradientUnits="userSpaceOnUse" x1="32" x2="32" y1="63" y2="1"><stop offset="0" stop-color="#9f2fff"/><stop offset="1" stop-color="#0bb1d3"/></linearGradient><path d="m34.508 39.125.616 1.903c-.64.207-1.301.397-1.981.572l-.496-1.938c.639-.162 1.261-.342 1.861-.537zm-5.684 1.307.301 1.978c.683-.104 1.356-.222 2.016-.354l-.393-1.961c-.629.125-1.272.238-1.924.337zm-3.895.43.143 1.995c.682-.049 1.358-.11 2.029-.183l-.217-1.988c-.647.07-1.299.129-1.955.176zm3.895 15.57.301 1.978c.683-.104 1.356-.222 2.016-.354l-.393-1.961c-.629.125-1.272.238-1.924.337zm-3.895.43.143 1.995c.682-.049 1.358-.11 2.029-.183l-.217-1.988c-.647.07-1.299.129-1.955.176zm7.718-1.199.496 1.938c.68-.174 1.341-.365 1.981-.572l-.616-1.903c-.6.194-1.222.374-1.861.537zm-21.738-5.608c.66.132 1.333.25 2.016.354l.301-1.978c-.652-.099-1.294-.211-1.924-.337zm-3.984-1.026c.64.207 1.301.397 1.981.572l.496-1.938c-.639-.164-1.26-.343-1.861-.538zm8.025 1.645c.67.073 1.347.134 2.029.183l.143-1.995c-.656-.047-1.309-.106-1.955-.176zm48.05-10.674c0 1.654-1.346 3-3 3-1.302 0-2.402-.839-2.816-2h-3.184c-1.654 0-3-1.346-3-3v-8c0-1.654 1.346-3 3-3h.707c3.373 0 6.194-2.608 6.291-5.814.049-1.64-.551-3.189-1.691-4.364-1.141-1.175-2.67-1.822-4.307-1.822h-1.094l.047-1.087c.027-.301.047-.605.047-.913 0-5.514-4.486-10-10-10-3.227 0-6.256 1.597-8.123 4.2 1.909 1.651 3.123 4.084 3.123 6.8h-2c0-3.86-3.14-7-7-7-3.612 0-6.593 2.75-6.961 6.266 1.34.349 2.564 1.038 3.578 2.038 1.537 1.515 2.383 3.538 2.383 5.696h-2c0-1.618-.635-3.136-1.787-4.272-1.152-1.137-2.636-1.743-4.299-1.728-3.162.044-5.87 2.752-5.914 5.914-.022 1.62.591 3.146 1.728 4.298 1.136 1.153 2.654 1.788 4.272 1.788h14v-3c0-1.654 1.346-3 3-3h6v-4.184c-1.161-.414-2-1.514-2-2.816 0-1.654 1.346-3 3-3s3 1.346 3 3c0 1.302-.839 2.402-2 2.816v4.184h2.184c.414-1.161 1.514-2 2.816-2 1.654 0 3 1.346 3 3s-1.346 3-3 3c-1.302 0-2.402-.839-2.816-2h-10.184c-.551 0-1 .449-1 1v3h7c1.654 0 3 1.346 3 3v16c0 .551.449 1 1 1h1.184c.414-1.161 1.514-2 2.816-2 1.654 0 3 1.346 3 3s-1.346 3-3 3c-1.302 0-2.402-.839-2.816-2h-1.184c-1.654 0-3-1.346-3-3v-16c0-.551-.449-1-1-1h-3.586c.448.76.586 1.458.586 2v24c0 5.196-10.305 8-20 8s-20-2.804-20-8v-24c0-3.388 4.835-6.246 12.429-7.432-.288-.852-.441-1.754-.428-2.682.06-4.289 3.597-7.827 7.886-7.886.057 0 .113.006.171.006.497-4.496 4.316-8.006 8.942-8.006 1.531 0 2.973.387 4.236 1.064 2.238-3.137 5.881-5.064 9.764-5.064 6.617 0 12 5.383 12 12v.066c1.818.226 3.463 1.045 4.742 2.363 1.52 1.566 2.32 3.631 2.254 5.816-.128 4.276-3.847 7.755-8.289 7.755h-.707c-.551 0-1 .449-1 1v8c0 .551.449 1 1 1h3.184c.414-1.161 1.514-2 2.816-2 1.654 0 3 1.346 3 3zm-12 8c0 .551.449 1 1 1s1-.449 1-1-.449-1-1-1-1 .449-1 1zm-7-34c0 .551.449 1 1 1s1-.449 1-1-.449-1-1-1-1 .449-1 1zm6 8c0 .551.449 1 1 1s1-.449 1-1-.449-1-1-1-1 .449-1 1zm-11 33v-4.36c-3.463 2.851-10.892 4.36-18 4.36s-14.537-1.509-18-4.36v4.36c0 2.838 7.392 6 18 6s18-3.162 18-6zm0-8v-4.36c-3.463 2.851-10.892 4.36-18 4.36s-14.537-1.509-18-4.36v4.36c0 2.838 7.392 6 18 6s18-3.162 18-6zm0-8v-4.36c-3.463 2.851-10.892 4.36-18 4.36s-14.537-1.509-18-4.36v4.36c0 2.838 7.392 6 18 6s18-3.162 18-6zm-18-10c-6.929 0-11.228 1.233-11.945 2 .717.767 5.016 2 11.945 2s11.228-1.233 11.945-2c-.717-.767-5.016-2-11.945-2zm-6.643-3.545c-7.452 1.046-11.357 3.55-11.357 5.545 0 2.838 7.392 6 18 6s18-3.162 18-6c0-.782-.586-1.483-1.188-2h-4.29c.907.52 1.478 1.174 1.478 2 0 3.888-12.567 4-14 4s-14-.112-14-4c0-2.441 4.953-3.393 8.995-3.764-.239-.193-.472-.396-.691-.619-.356-.361-.67-.751-.947-1.162zm46.643 14.545c0-.551-.449-1-1-1s-1 .449-1 1 .449 1 1 1 1-.449 1-1z" fill="url(#SVGID_1_)"/></svg>